<?xml version="1.0" encoding="UTF-8"?>
<svg version="1.1" xmlns="http://www.w3.org/2000/svg" width="1254" height="1254">
<path d="M0 0 C413.82 0 827.64 0 1254 0 C1254 413.82 1254 827.64 1254 1254 C840.18 1254 426.36 1254 0 1254 C0 840.18 0 426.36 0 0 Z " fill="#00BC5D" transform="translate(0,0)"/>
<path d="M0 0 C1.02451645 -0.00327219 2.0490329 -0.00654439 3.1045953 -0.00991574 C4.80149819 -0.0076903 4.80149819 -0.0076903 6.53268194 -0.00541991 C7.73496998 -0.00777214 8.93725801 -0.01012437 10.17597902 -0.01254788 C13.53400176 -0.0180845 16.89197239 -0.01910814 20.2499961 -0.01827047 C23.89551366 -0.01843963 27.54102257 -0.02434199 31.18653584 -0.02951133 C38.42643452 -0.03885099 45.6663271 -0.04276168 52.90623106 -0.0450303 C61.57447257 -0.04798884 70.24270593 -0.05668423 78.91094317 -0.06544458 C99.86548706 -0.08630479 120.82003236 -0.09676144 141.77458421 -0.10557419 C151.68500258 -0.10977863 161.59542034 -0.11500091 171.5058382 -0.12025872 C205.42088213 -0.13815068 239.33592623 -0.15314714 273.25097418 -0.16057891 C275.3808395 -0.16105367 277.51070482 -0.16152955 279.64057013 -0.16200657 C280.69680836 -0.16224294 281.75304659 -0.16247932 282.84129203 -0.16272286 C288.19285672 -0.16392408 293.5444214 -0.16513952 298.89598608 -0.16636485 C299.95802707 -0.166605 301.02006806 -0.16684515 302.11429211 -0.16709258 C336.55066019 -0.17498606 370.98699384 -0.198418 405.42334688 -0.23092079 C441.81898933 -0.26521022 478.21461163 -0.28492925 514.6102705 -0.28822315 C518.60493836 -0.2886407 522.5996062 -0.28912026 526.59427404 -0.28964633 C527.57789603 -0.28976952 528.56151802 -0.28989271 529.57494674 -0.29001964 C545.41233488 -0.29235284 561.24968307 -0.30801957 577.08705697 -0.32848817 C593.00392143 -0.34873326 608.92073785 -0.35422972 624.83761281 -0.34471754 C634.29573652 -0.33949736 643.75370042 -0.34540444 653.21180117 -0.36725221 C659.53025031 -0.3807454 665.84858926 -0.37969641 672.16703946 -0.36685025 C675.76686497 -0.35994371 679.36638463 -0.35931752 682.96618301 -0.37641034 C686.84759287 -0.39468995 690.72855415 -0.38189882 694.60998297 -0.36618346 C695.72252223 -0.37640567 696.83506149 -0.38662787 697.98131406 -0.39715984 C705.38679941 -0.33161294 711.29566297 1.17954234 718.07469702 4.12880117 C719.08403296 4.56321523 720.09336889 4.99762929 721.13329077 5.44520742 C736.78738357 13.64497031 747.60905663 27.02947938 754.19969702 43.27723867 C756.07426726 49.38632918 756.22038439 55.48474494 756.20612478 61.81215364 C756.20920373 63.09275421 756.20920373 63.09275421 756.21234488 64.3992255 C756.21800155 67.2613844 756.21655928 70.12349497 756.21513891 72.98565847 C756.2177233 75.05792269 756.22073667 77.13018641 756.22414231 79.20244944 C756.23220672 84.89846075 756.23400157 90.59445945 756.23473978 96.29047579 C756.23659128 102.43311071 756.24413907 108.57573911 756.250875 114.71837026 C756.26516241 128.8504457 756.27098411 142.98251698 756.27556694 157.11459791 C756.27790425 164.10030905 756.28150703 171.08601937 756.28526232 178.07172987 C756.29809592 201.99153334 756.30881569 225.91133636 756.31226492 249.8311432 C756.31248655 251.3320966 756.31270833 252.83305001 756.31293027 254.33400341 C756.31315091 255.83854545 756.31337139 257.3430875 756.31359172 258.84762955 C756.31403427 261.86591397 756.31448138 264.88419839 756.31493139 267.90248281 C756.31504078 268.65083937 756.31515017 269.39919593 756.31526288 270.17022996 C756.31889356 294.43599518 756.33481498 318.70173053 756.35812176 342.9674843 C756.38272684 368.63194289 756.39643805 394.2963844 756.39763284 419.96085513 C756.39780429 422.77900158 756.39801971 425.59714802 756.39826727 428.41529447 C756.39832304 429.10918458 756.39837881 429.80307469 756.39843627 430.51799178 C756.39958605 441.6760379 756.4106018 452.83405332 756.42515432 463.99208908 C756.43953223 475.21032955 756.44249681 486.42853129 756.43471435 497.646782 C756.43080679 503.72213029 756.4317428 509.7973754 756.44577169 515.872711 C756.45850376 521.43734167 756.45731903 527.00179157 756.44518098 532.56642196 C756.44322282 534.57650887 756.44630792 536.58660855 756.45502535 538.5966775 C756.54170823 559.94007999 752.38160493 577.19818224 737.07469702 593.12880117 C725.01443062 604.64601617 708.76552272 610.64288291 692.26093054 610.48956472 C691.23064377 610.49212799 690.20035701 610.49469127 689.13884944 610.49733222 C685.71796873 610.50223773 682.29753839 610.48583059 678.87669897 610.46937734 C676.41205369 610.46853037 673.94740765 610.46900757 671.48276281 610.47070485 C666.19267921 610.47138599 660.90273335 610.4629275 655.61268568 610.44599134 C647.96436297 610.42152118 640.31609381 610.41378791 632.6677362 610.41002736 C620.2562401 610.40347539 607.84480345 610.38354843 595.4333396 610.35511953 C583.38288687 610.32754638 571.33245034 610.30632877 559.28197241 610.29359609 C558.53811347 610.29280792 557.79425454 610.29201975 557.02785442 610.29120769 C553.29581369 610.28729234 549.56377284 610.28350127 545.83173192 610.27977198 C514.9126683 610.24871516 483.9937139 610.1934333 453.07469702 610.12880117 C453.07469702 629.92880117 453.07469702 649.72880117 453.07469702 670.12880117 C458.19098608 670.08239492 463.30727514 670.03598867 468.57860327 669.98817617 C471.82797263 669.96772788 475.0772622 669.94847151 478.32665014 669.93348867 C483.47956926 669.90961575 488.63220294 669.88143316 493.7849021 669.82704335 C497.94111707 669.78344867 502.09702578 669.75963541 506.25345182 669.74929219 C507.83584362 669.74192516 509.41821945 669.72753898 511.00048018 669.70588094 C513.2242311 669.67666426 515.44673103 669.67285254 517.67064428 669.6746996 C518.93417227 669.66581716 520.19770025 669.65693471 521.49951696 669.6477831 C526.86084427 670.36911608 530.45143445 672.63369091 534.44969702 676.31630117 C536.69547809 680.20322995 537.26452679 683.65989198 537.07469702 688.12880117 C535.34889761 693.40771701 532.43692417 695.94801054 528.07469702 699.12880117 C524.88153703 700.19318783 522.61233299 700.25627798 519.25623369 700.26022893 C518.03477229 700.26407008 516.81331088 700.26791122 515.5548355 700.27186877 C514.19220851 700.27108848 512.82958158 700.27020969 511.46695471 700.26924306 C510.02496076 700.27182601 508.58296753 700.27483897 507.1409753 700.27824646 C503.1687826 700.28632794 499.19660797 700.28810667 495.22440803 700.28884393 C490.94413747 700.29069248 486.66387633 700.29823879 482.3836112 700.30497915 C473.02004954 700.31857093 463.65649215 700.32458844 454.29292226 700.3289898 C448.44861192 700.33175068 442.60430325 700.33598774 436.75999403 700.34049398 C420.58538908 700.35268752 404.41078546 700.36298681 388.23617601 700.36636907 C387.20062681 700.36658863 386.16507761 700.3668082 385.09814813 700.36703442 C384.06009339 700.3672527 383.02203865 700.36747098 381.9525277 700.36769587 C379.8489637 700.36813934 377.74539969 700.3685859 375.64183569 700.36903554 C374.59839089 700.36925697 373.55494608 700.3694784 372.47988174 700.36970654 C355.56767275 700.37365559 338.65550682 700.39111249 321.74331447 700.41439506 C304.38845835 700.43809461 287.03362386 700.45057027 269.67875129 700.45173699 C259.93112854 700.45265451 250.18356189 700.45842628 240.43595457 700.4765566 C232.13652867 700.49193872 223.83717621 700.49708922 215.53773876 700.4888185 C211.30208691 700.48490534 207.06658305 700.48587394 202.83094931 700.49987584 C198.95403227 700.51257491 195.07737503 700.51145262 191.20045856 700.49928513 C189.79735274 700.49732118 188.39422877 700.50043869 186.99114849 700.50912949 C185.08435696 700.52019329 183.17748 700.51095976 181.27068377 700.50073797 C180.21137138 700.50133505 179.152059 700.50193214 178.06064624 700.50254732 C173.18453165 699.8922124 169.90264034 697.83075311 166.19969702 694.69130117 C163.25574974 690.85553924 163.32030455 686.72982802 163.52391577 682.04676992 C164.36739624 677.57811805 166.33516155 674.69876998 170.07469702 672.12880117 C174.61144273 670.31434152 178.40351227 669.88441973 183.27342749 669.90175039 C183.96680716 669.90145833 184.66018682 669.90116628 185.374578 669.90086538 C187.64714458 669.90224931 189.91937581 669.91776578 192.19188452 669.93348867 C193.77514482 669.93722214 195.35840745 669.94006753 196.94167089 669.94206411 C201.09437535 669.94967428 205.24693832 669.9693001 209.39958715 669.99147207 C214.38981214 670.01559847 219.38008461 670.02472394 224.37035131 670.03637868 C231.93856473 670.05572619 239.50646815 670.09406682 247.07469702 670.12880117 C247.07469702 650.32880117 247.07469702 630.52880117 247.07469702 610.12880117 C239.6353562 610.14974843 232.19601538 610.1706957 224.53123999 610.19227773 C200.6903156 610.25656531 176.84939624 610.30100854 153.0084086 610.33306248 C149.30117509 610.33806492 145.59394185 610.34324225 141.88670874 610.34852773 C140.77970856 610.35010159 140.77970856 610.35010159 139.65034474 610.35170725 C127.72255363 610.36908186 115.79484014 610.40060318 103.86709498 610.43741235 C91.61543777 610.47490397 79.36382104 610.49705434 67.11210883 610.50515515 C59.56059627 610.51062594 52.00930317 610.52786403 44.45785822 610.56046703 C38.65379311 610.58423948 32.84986659 610.58660037 27.04576254 610.58123189 C24.67471995 610.58232745 22.30366864 610.59021851 19.93267584 610.60562307 C-1.69058596 610.73915637 -20.54256027 607.65366377 -36.92530298 592.12880117 C-52.53613092 575.37503761 -55.53935157 557.33281798 -55.43996668 535.37478811 C-55.44530038 533.30259056 -55.45237078 531.2303969 -55.46101373 529.15821052 C-55.47955851 523.4993164 -55.47336426 517.84068544 -55.4628607 512.18178076 C-55.45584551 506.06509394 -55.47188418 499.94845993 -55.48485804 493.83178884 C-55.50521727 482.55362593 -55.50732692 471.27556861 -55.49964158 459.9973999 C-55.49255519 449.57602019 -55.49252452 439.15467133 -55.49950457 428.73329145 C-55.50041592 427.33270617 -55.50132668 425.93212089 -55.50223685 424.53153561 C-55.50362006 422.42071402 -55.50501115 420.30989243 -55.50642299 418.19907086 C-55.51939359 398.58864706 -55.52453067 378.97823355 -55.51288939 359.36780816 C-55.51245141 358.62940605 -55.51201344 357.89100393 -55.5115622 357.13022599 C-55.50795576 351.13475124 -55.5041208 345.13927663 -55.50027127 339.14380203 C-55.48542424 315.75895702 -55.49420628 292.3742288 -55.52222681 268.98939687 C-55.5536848 242.68581644 -55.56861538 216.38230513 -55.5584268 190.07870555 C-55.55739009 187.27184593 -55.55640286 184.4649863 -55.55544329 181.65812665 C-55.5551944 180.96706138 -55.55494551 180.27599612 -55.55468909 179.56398948 C-55.55125556 169.15275379 -55.56053008 158.74157935 -55.57621431 148.33035642 C-55.59401831 136.48515191 -55.59359468 124.64010115 -55.57086266 112.79489005 C-55.55973694 106.75538675 -55.55652054 100.71616288 -55.57516336 94.6766718 C-55.59203252 89.14039944 -55.58552972 83.60464887 -55.56094658 78.06840991 C-55.55608406 76.07329969 -55.55952177 74.07814686 -55.57243402 72.08307249 C-55.70464018 50.05379914 -49.90453739 32.82604283 -34.67530298 16.50380117 C-25.99163642 8.14891486 -12.30193828 0.01026594 0 0 Z " fill="#00BC5D" transform="translate(275.9253029823303,283.87119883298874)"/>
<path d="M0 0 C1.02451645 -0.00327219 2.0490329 -0.00654439 3.1045953 -0.00991574 C4.80149819 -0.0076903 4.80149819 -0.0076903 6.53268194 -0.00541991 C7.73496998 -0.00777214 8.93725801 -0.01012437 10.17597902 -0.01254788 C13.53400176 -0.0180845 16.89197239 -0.01910814 20.2499961 -0.01827047 C23.89551366 -0.01843963 27.54102257 -0.02434199 31.18653584 -0.02951133 C38.42643452 -0.03885099 45.6663271 -0.04276168 52.90623106 -0.0450303 C61.57447257 -0.04798884 70.24270593 -0.05668423 78.91094317 -0.06544458 C99.86548706 -0.08630479 120.82003236 -0.09676144 141.77458421 -0.10557419 C151.68500258 -0.10977863 161.59542034 -0.11500091 171.5058382 -0.12025872 C205.42088213 -0.13815068 239.33592623 -0.15314714 273.25097418 -0.16057891 C275.3808395 -0.16105367 277.51070482 -0.16152955 279.64057013 -0.16200657 C280.69680836 -0.16224294 281.75304659 -0.16247932 282.84129203 -0.16272286 C288.19285672 -0.16392408 293.5444214 -0.16513952 298.89598608 -0.16636485 C299.95802707 -0.166605 301.02006806 -0.16684515 302.11429211 -0.16709258 C336.55066019 -0.17498606 370.98699384 -0.198418 405.42334688 -0.23092079 C441.81898933 -0.26521022 478.21461163 -0.28492925 514.6102705 -0.28822315 C518.60493836 -0.2886407 522.5996062 -0.28912026 526.59427404 -0.28964633 C527.57789603 -0.28976952 528.56151802 -0.28989271 529.57494674 -0.29001964 C545.41233488 -0.29235284 561.24968307 -0.30801957 577.08705697 -0.32848817 C593.00392143 -0.34873326 608.92073785 -0.35422972 624.83761281 -0.34471754 C634.29573652 -0.33949736 643.75370042 -0.34540444 653.21180117 -0.36725221 C659.53025031 -0.3807454 665.84858926 -0.37969641 672.16703946 -0.36685025 C675.76686497 -0.35994371 679.36638463 -0.35931752 682.96618301 -0.37641034 C686.84759287 -0.39468995 690.72855415 -0.38189882 694.60998297 -0.36618346 C695.72252223 -0.37640567 696.83506149 -0.38662787 697.98131406 -0.39715984 C705.38679941 -0.33161294 711.29566297 1.17954234 718.07469702 4.12880117 C719.08403296 4.56321523 720.09336889 4.99762929 721.13329077 5.44520742 C736.78738357 13.64497031 747.60905663 27.02947938 754.19969702 43.27723867 C756.07426726 49.38632918 756.22038439 55.48474494 756.20612478 61.81215364 C756.20920373 63.09275421 756.20920373 63.09275421 756.21234488 64.3992255 C756.21800155 67.2613844 756.21655928 70.12349497 756.21513891 72.98565847 C756.2177233 75.05792269 756.22073667 77.13018641 756.22414231 79.20244944 C756.23220672 84.89846075 756.23400157 90.59445945 756.23473978 96.29047579 C756.23659128 102.43311071 756.24413907 108.57573911 756.250875 114.71837026 C756.26516241 128.8504457 756.27098411 142.98251698 756.27556694 157.11459791 C756.27790425 164.10030905 756.28150703 171.08601937 756.28526232 178.07172987 C756.29809592 201.99153334 756.30881569 225.91133636 756.31226492 249.8311432 C756.31248655 251.3320966 756.31270833 252.83305001 756.31293027 254.33400341 C756.31315091 255.83854545 756.31337139 257.3430875 756.31359172 258.84762955 C756.31403427 261.86591397 756.31448138 264.88419839 756.31493139 267.90248281 C756.31504078 268.65083937 756.31515017 269.39919593 756.31526288 270.17022996 C756.31889356 294.43599518 756.33481498 318.70173053 756.35812176 342.9674843 C756.38272684 368.63194289 756.39643805 394.2963844 756.39763284 419.96085513 C756.39780429 422.77900158 756.39801971 425.59714802 756.39826727 428.41529447 C756.39832304 429.10918458 756.39837881 429.80307469 756.39843627 430.51799178 C756.39958605 441.6760379 756.4106018 452.83405332 756.42515432 463.99208908 C756.43953223 475.21032955 756.44249681 486.42853129 756.43471435 497.646782 C756.43080679 503.72213029 756.4317428 509.7973754 756.44577169 515.872711 C756.45850376 521.43734167 756.45731903 527.00179157 756.44518098 532.56642196 C756.44322282 534.57650887 756.44630792 536.58660855 756.45502535 538.5966775 C756.54170823 559.94007999 752.38160493 577.19818224 737.07469702 593.12880117 C725.01443062 604.64601617 708.76552272 610.64288291 692.26093054 610.48956472 C691.23064377 610.49212799 690.20035701 610.49469127 689.13884944 610.49733222 C685.71796873 610.50223773 682.29753839 610.48583059 678.87669897 610.46937734 C676.41205369 610.46853037 673.94740765 610.46900757 671.48276281 610.47070485 C666.19267921 610.47138599 660.90273335 610.4629275 655.61268568 610.44599134 C647.96436297 610.42152118 640.31609381 610.41378791 632.6677362 610.41002736 C620.2562401 610.40347539 607.84480345 610.38354843 595.4333396 610.35511953 C583.38288687 610.32754638 571.33245034 610.30632877 559.28197241 610.29359609 C558.53811347 610.29280792 557.79425454 610.29201975 557.02785442 610.29120769 C553.29581369 610.28729234 549.56377284 610.28350127 545.83173192 610.27977198 C514.9126683 610.24871516 483.9937139 610.1934333 453.07469702 610.12880117 C453.07469702 629.92880117 453.07469702 649.72880117 453.07469702 670.12880117 C458.19098608 670.08239492 463.30727514 670.03598867 468.57860327 669.98817617 C471.82797263 669.96772788 475.0772622 669.94847151 478.32665014 669.93348867 C483.47956926 669.90961575 488.63220294 669.88143316 493.7849021 669.82704335 C497.94111707 669.78344867 502.09702578 669.75963541 506.25345182 669.74929219 C507.83584362 669.74192516 509.41821945 669.72753898 511.00048018 669.70588094 C513.2242311 669.67666426 515.44673103 669.67285254 517.67064428 669.6746996 C518.93417227 669.66581716 520.19770025 669.65693471 521.49951696 669.6477831 C526.86084427 670.36911608 530.45143445 672.63369091 534.44969702 676.31630117 C536.69547809 680.20322995 537.26452679 683.65989198 537.07469702 688.12880117 C535.34889761 693.40771701 532.43692417 695.94801054 528.07469702 699.12880117 C524.88153703 700.19318783 522.61233299 700.25627798 519.25623369 700.26022893 C518.03477229 700.26407008 516.81331088 700.26791122 515.5548355 700.27186877 C514.19220851 700.27108848 512.82958158 700.27020969 511.46695471 700.26924306 C510.02496076 700.27182601 508.58296753 700.27483897 507.1409753 700.27824646 C503.1687826 700.28632794 499.19660797 700.28810667 495.22440803 700.28884393 C490.94413747 700.29069248 486.66387633 700.29823879 482.3836112 700.30497915 C473.02004954 700.31857093 463.65649215 700.32458844 454.29292226 700.3289898 C448.44861192 700.33175068 442.60430325 700.33598774 436.75999403 700.34049398 C420.58538908 700.35268752 404.41078546 700.36298681 388.23617601 700.36636907 C387.20062681 700.36658863 386.16507761 700.3668082 385.09814813 700.36703442 C384.06009339 700.3672527 383.02203865 700.36747098 381.9525277 700.36769587 C379.8489637 700.36813934 377.74539969 700.3685859 375.64183569 700.36903554 C374.59839089 700.36925697 373.55494608 700.3694784 372.47988174 700.36970654 C355.56767275 700.37365559 338.65550682 700.39111249 321.74331447 700.41439506 C304.38845835 700.43809461 287.03362386 700.45057027 269.67875129 700.45173699 C259.93112854 700.45265451 250.18356189 700.45842628 240.43595457 700.4765566 C232.13652867 700.49193872 223.83717621 700.49708922 215.53773876 700.4888185 C211.30208691 700.48490534 207.06658305 700.48587394 202.83094931 700.49987584 C198.95403227 700.51257491 195.07737503 700.51145262 191.20045856 700.49928513 C189.79735274 700.49732118 188.39422877 700.50043869 186.99114849 700.50912949 C185.08435696 700.52019329 183.17748 700.51095976 181.27068377 700.50073797 C180.21137138 700.50133505 179.152059 700.50193214 178.06064624 700.50254732 C173.18453165 699.8922124 169.90264034 697.83075311 166.19969702 694.69130117 C163.25574974 690.85553924 163.32030455 686.72982802 163.52391577 682.04676992 C164.36739624 677.57811805 166.33516155 674.69876998 170.07469702 672.12880117 C174.61144273 670.31434152 178.40351227 669.88441973 183.27342749 669.90175039 C183.96680716 669.90145833 184.66018682 669.90116628 185.374578 669.90086538 C187.64714458 669.90224931 189.91937581 669.91776578 192.19188452 669.93348867 C193.77514482 669.93722214 195.35840745 669.94006753 196.94167089 669.94206411 C201.09437535 669.94967428 205.24693832 669.9693001 209.39958715 669.99147207 C214.38981214 670.01559847 219.38008461 670.02472394 224.37035131 670.03637868 C231.93856473 670.05572619 239.50646815 670.09406682 247.07469702 670.12880117 C247.07469702 650.32880117 247.07469702 630.52880117 247.07469702 610.12880117 C239.6353562 610.14974843 232.19601538 610.1706957 224.53123999 610.19227773 C200.6903156 610.25656531 176.84939624 610.30100854 153.0084086 610.33306248 C149.30117509 610.33806492 145.59394185 610.34324225 141.88670874 610.34852773 C140.77970856 610.35010159 140.77970856 610.35010159 139.65034474 610.35170725 C127.72255363 610.36908186 115.79484014 610.40060318 103.86709498 610.43741235 C91.61543777 610.47490397 79.36382104 610.49705434 67.11210883 610.50515515 C59.56059627 610.51062594 52.00930317 610.52786403 44.45785822 610.56046703 C38.65379311 610.58423948 32.84986659 610.58660037 27.04576254 610.58123189 C24.67471995 610.58232745 22.30366864 610.59021851 19.93267584 610.60562307 C-1.69058596 610.73915637 -20.54256027 607.65366377 -36.92530298 592.12880117 C-52.53613092 575.37503761 -55.53935157 557.33281798 -55.43996668 535.37478811 C-55.44530038 533.30259056 -55.45237078 531.2303969 -55.46101373 529.15821052 C-55.47955851 523.4993164 -55.47336426 517.84068544 -55.4628607 512.18178076 C-55.45584551 506.06509394 -55.47188418 499.94845993 -55.48485804 493.83178884 C-55.50521727 482.55362593 -55.50732692 471.27556861 -55.49964158 459.9973999 C-55.49255519 449.57602019 -55.49252452 439.15467133 -55.49950457 428.73329145 C-55.50041592 427.33270617 -55.50132668 425.93212089 -55.50223685 424.53153561 C-55.50362006 422.42071402 -55.50501115 420.30989243 -55.50642299 418.19907086 C-55.51939359 398.58864706 -55.52453067 378.97823355 -55.51288939 359.36780816 C-55.51245141 358.62940605 -55.51201344 357.89100393 -55.5115622 357.13022599 C-55.50795576 351.13475124 -55.5041208 345.13927663 -55.50027127 339.14380203 C-55.48542424 315.75895702 -55.49420628 292.3742288 -55.52222681 268.98939687 C-55.5536848 242.68581644 -55.56861538 216.38230513 -55.5584268 190.07870555 C-55.55739009 187.27184593 -55.55640286 184.4649863 -55.55544329 181.65812665 C-55.5551944 180.96706138 -55.55494551 180.27599612 -55.55468909 179.56398948 C-55.55125556 169.15275379 -55.56053008 158.74157935 -55.57621431 148.33035642 C-55.59401831 136.48515191 -55.59359468 124.64010115 -55.57086266 112.79489005 C-55.55973694 106.75538675 -55.55652054 100.71616288 -55.57516336 94.6766718 C-55.59203252 89.14039944 -55.58552972 83.60464887 -55.56094658 78.06840991 C-55.55608406 76.07329969 -55.55952177 74.07814686 -55.57243402 72.08307249 C-55.70464018 50.05379914 -49.90453739 32.82604283 -34.67530298 16.50380117 C-25.99163642 8.14891486 -12.30193828 0.01026594 0 0 Z M-17.68702173 40.94520742 C-26.64007037 52.10832851 -26.50195829 63.42500022 -26.43996668 77.08067495 C-26.44529498 79.12665926 -26.4523623 81.17263965 -26.46101373 83.21861261 C-26.47963025 88.82811674 -26.47333935 94.43735667 -26.4628607 100.04687172 C-26.45586593 106.10153847 -26.4718688 112.1561511 -26.48485804 118.2108019 C-26.50524852 129.38240936 -26.5073178 140.55393434 -26.49964158 151.72554868 C-26.49256374 162.04790503 -26.49251625 172.37023021 -26.49950457 182.69258672 C-26.50041591 184.07820248 -26.50132667 185.46381824 -26.50223685 186.849434 C-26.50362001 188.93753639 -26.50501111 191.02563879 -26.50642299 193.11374117 C-26.51940033 212.52232283 -26.52452239 231.93089408 -26.51288939 251.33947736 C-26.51245141 252.07081327 -26.51201344 252.80214918 -26.5115622 253.55564678 C-26.50795552 259.49427968 -26.50412068 265.43291244 -26.50027127 271.37154519 C-26.48542515 294.53400105 -26.49420214 317.69633899 -26.52222681 340.85878164 C-26.55366792 366.89457018 -26.56862051 392.93028893 -26.5584268 418.96609682 C-26.55739005 421.74319256 -26.55640282 424.52028831 -26.55544329 427.29738408 C-26.5551944 427.98115264 -26.55494551 428.6649212 -26.55468909 429.36941002 C-26.55125181 439.68246999 -26.56054453 449.99546825 -26.57621431 460.30851537 C-26.59399815 472.03976186 -26.59362311 483.77088379 -26.57086266 495.50213306 C-26.55971859 501.48642476 -26.55656217 507.47043412 -26.57516336 513.45471364 C-26.59198196 518.93608272 -26.58559772 524.41692346 -26.56094658 529.8982584 C-26.55606749 531.87796917 -26.55956742 533.85772266 -26.57243402 535.83739762 C-26.65360888 549.30195359 -25.79191952 561.11773623 -15.93702173 571.37880117 C-5.94034106 580.0749428 4.11180474 581.43481486 16.95582819 581.38607007 C18.13097222 581.38957615 19.30611625 581.39308222 20.51687071 581.39669454 C23.77083141 581.4043805 27.02464643 581.40316479 30.27860776 581.398139 C33.82173737 581.39486363 37.36484336 581.40316215 40.90796536 581.40995735 C47.11526219 581.42025325 53.32252784 581.42310185 59.52983236 581.42104512 C68.76047526 581.41799411 77.99108366 581.4263213 87.22171984 581.43679438 C104.66696983 581.45613482 122.11220806 581.4617626 139.5574675 581.46290849 C153.02873992 581.46382757 166.50000774 581.46794423 179.97127867 581.47430974 C183.84893725 581.47610482 187.72659584 581.47788445 191.60425442 581.4796595 C192.56824776 581.48010159 193.5322411 581.48054369 194.52544635 581.48099918 C221.63993771 581.49330719 248.75442748 581.50120034 275.86892176 581.50031263 C276.89116429 581.50028147 277.91340683 581.50025031 278.96662641 581.50021821 C284.14778552 581.50005199 289.32894463 581.49985391 294.51010374 581.49964879 C295.53910256 581.4996089 296.56810138 581.49956901 297.62828199 581.49952791 C299.70916771 581.49944704 301.79005343 581.49936344 303.87093916 581.49927713 C336.25048122 581.49805146 368.6299814 581.51306798 401.00951147 581.54042226 C437.38663326 581.57114104 473.76372754 581.58835491 510.14086312 581.58649582 C514.01946477 581.58634655 517.89806642 581.58624914 521.77666807 581.58618718 C522.73168062 581.58616388 523.68669318 581.58614057 524.67064551 581.58611655 C540.04072782 581.586055 555.41077379 581.59882783 570.78084529 581.61605171 C586.22651148 581.63300241 601.67212445 581.63498641 617.11779479 581.62183307 C626.29357091 581.61444042 635.46918543 581.61811131 644.64494445 581.63771775 C650.77625768 581.64971197 656.90745379 581.64713291 663.03876164 581.63277675 C666.5307757 581.62500905 670.02247692 581.62347512 673.51446901 581.63969146 C677.28194705 581.65379926 681.04859262 581.64323494 684.81604242 581.62657911 C685.89215268 581.63651547 686.96826293 581.64645182 688.07698259 581.65668929 C699.56935972 581.54927465 709.84389126 578.39226885 718.07469702 570.12880117 C727.90296006 558.53317503 727.51043452 545.69751841 727.46237707 531.28408986 C727.46655248 529.24976936 727.47203114 527.21545119 727.47869688 525.18113732 C727.4931428 519.60394512 727.48890938 514.0269008 727.48153007 508.44970053 C727.47679865 502.42982733 727.489308 496.40998613 727.49954748 490.39012319 C727.51574765 479.28306456 727.51818085 468.17604463 727.51324249 457.0689791 C727.50868215 446.80685442 727.50928845 436.54474723 727.51508284 426.28262311 C727.51583971 424.9051259 727.51659569 423.52762869 727.51735078 422.15013148 C727.518496 420.0742746 727.51964588 417.99841772 727.52081002 415.92256086 C727.53151192 396.62829492 727.53624341 377.33403481 727.52833986 358.03976709 C727.52804269 357.31275454 727.52774552 356.585742 727.52743934 355.83669877 C727.5249905 349.93315147 727.52237886 344.02960424 727.5197552 338.12605702 C727.50965241 315.09789131 727.51801003 292.06979851 727.54124975 269.04164296 C727.56732919 243.15785794 727.58016856 217.27411681 727.573062 191.39031816 C727.57234596 188.62981044 727.57167157 185.86930272 727.57102156 183.10879499 C727.57076684 182.08926519 727.57076684 182.08926519 727.57050698 181.04913884 C727.56820535 170.79533229 727.57617445 160.54156654 727.58931303 150.28776914 C727.60423011 138.62531258 727.60468541 126.9629349 727.58724212 115.30047727 C727.57872056 109.35077323 727.57661105 103.40125158 727.59189367 97.45155698 C727.60571579 92.00299893 727.60100914 86.55477995 727.58165444 81.10624164 C727.57788658 79.13731444 727.58083896 77.16836025 727.59126609 75.19945706 C727.71944953 57.25196625 727.71944953 57.25196625 719.13719702 41.87880117 C705.65074771 28.74599167 693.09076475 29.10720314 675.0774024 29.25433373 C671.4888386 29.27582576 667.90044744 29.25638135 664.31187898 29.24229378 C658.03106391 29.22322018 651.75069566 29.2300012 645.46990347 29.25398809 C636.13036151 29.28955775 626.79113827 29.28486146 617.45155264 29.27219521 C601.73682459 29.25207729 586.02228383 29.26488319 570.30758238 29.29699498 C554.7468372 29.32877121 539.18617525 29.3473221 523.62539625 29.3478449 C522.65700812 29.3478907 521.68861999 29.34793651 520.69088676 29.3479837 C516.75986067 29.3481314 512.82883459 29.34818735 508.89780849 29.34812021 C472.03335008 29.34755515 435.16901836 29.38454548 398.30460711 29.44074197 C365.54851357 29.49051034 332.79249814 29.51586684 300.03636694 29.51796132 C298.99450215 29.51803282 297.95263736 29.51810431 296.8792009 29.51817797 C294.77690907 29.51832207 292.67461723 29.5184641 290.57232539 29.51860404 C285.33628013 29.5189536 280.10023488 29.51932448 274.86418962 29.51972181 C273.83120824 29.51979532 272.79822686 29.51986883 271.73394302 29.51994457 C239.46540933 29.52249506 207.19688989 29.54658812 174.92836912 29.57409443 C164.22161394 29.5831953 153.51486154 29.59082111 142.80810285 29.59409839 C141.84392005 29.59439425 140.87973726 29.59469011 139.88633681 29.59499493 C137.94464129 29.59558329 136.00294576 29.59617078 134.06125023 29.59675737 C116.5108653 29.60218291 98.96053771 29.61807006 81.41018262 29.65170465 C72.12693861 29.66923614 62.84377201 29.67867545 53.56051123 29.6763661 C47.36278819 29.67567007 41.16514539 29.68587641 34.96745207 29.70503656 C31.4343557 29.71566657 27.90142469 29.72158674 24.36831578 29.71440016 C20.5637445 29.70679044 16.75946778 29.72229083 12.95492601 29.7401045 C11.30746149 29.73128433 11.30746149 29.73128433 9.62671486 29.72228599 C-1.01336834 29.81149467 -10.14479704 33.16885601 -17.68702173 40.94520742 Z " fill="#000000" transform="translate(275.9253029823303,283.87119883298874)"/>
<path d="M0 0 C2.97699177 2.47366533 4.65025143 3.96637929 5.89453125 7.69921875 C5.99036008 9.4027598 6.02827937 11.10981575 6.03319645 12.8160429 C6.03867089 13.8809683 6.04414534 14.9458937 6.04978567 16.04308957 C6.05076378 17.21719933 6.05174189 18.39130908 6.05274963 19.60099792 C6.0601566 21.46694271 6.0601566 21.46694271 6.0677132 23.37058336 C6.08044442 26.82989251 6.08871762 30.28916123 6.09513986 33.74848449 C6.10313625 37.47649471 6.11683665 41.2044844 6.12985229 44.93247986 C6.15162585 51.39363653 6.16976712 57.85479527 6.18545723 64.31596947 C6.20814785 73.65779879 6.2362918 82.99960538 6.26577651 92.34141544 C6.31346232 107.49705014 6.35672383 122.65269412 6.3972168 137.80834961 C6.43656669 152.53264082 6.4779917 167.25692377 6.5222168 181.98120117 C6.52494107 182.88845966 6.52766534 183.79571814 6.53047217 184.73046931 C6.54415156 189.28181517 6.55787185 193.83316091 6.57161248 198.38450658 C6.6855928 236.15606017 6.79239872 273.92763136 6.89453125 311.69921875 C7.37528107 311.21593109 7.85603088 310.73264343 8.35134888 310.23471069 C8.98193207 309.60215363 9.61251526 308.96959656 10.26220703 308.31787109 C10.88733185 307.69020844 11.51245667 307.06254578 12.15652466 306.41586304 C13.96273025 304.63185801 15.82582434 302.95693256 17.76953125 301.32421875 C20.77920655 298.7328767 23.60541741 296.02667092 26.39453125 293.19921875 C29.67192939 289.88280397 33.03417112 286.76563036 36.57421875 283.734375 C40.29333592 280.47232105 43.89530507 277.08255968 47.50292969 273.69799805 C51.88298024 269.61706332 53.78680852 268.44095661 59.87109375 268.55078125 C64.02448654 268.8554703 66.38469973 270.30525803 69.64453125 272.82421875 C72.41336556 276.36217371 73.03651319 279.31448239 72.89453125 283.69921875 C71.92192967 289.43756809 70.01719878 291.75450809 65.89453125 295.69921875 C65.10433594 296.50101563 64.31414062 297.3028125 63.5 298.12890625 C62.70207031 298.93585938 61.90414062 299.7428125 61.08203125 300.57421875 C60.29183594 301.37601563 59.50164062 302.1778125 58.6875 303.00390625 C55.86548371 305.72725065 52.94621063 308.29210898 49.98461914 310.86083984 C46.58596228 313.85019695 43.30701981 316.9637457 40.01953125 320.07421875 C35.54357215 324.29377237 31.05503605 328.48710337 26.45703125 332.57421875 C22.50327724 336.09749703 18.7753911 339.79976803 15.0546875 343.56640625 C11.80506624 346.77489306 8.37580575 349.74674544 4.89453125 352.69921875 C4.32476563 353.19679688 3.755 353.694375 3.16796875 354.20703125 C-1.62220848 358.33649438 -4.81391678 359.02464385 -11.10546875 358.69921875 C-18.34289939 357.02904245 -24.10372229 349.82600887 -29.10546875 344.69921875 C-33.64025956 340.06605938 -38.25548919 335.64042925 -43.171875 331.4140625 C-45.66978431 329.19874495 -47.98571864 326.83023705 -50.32421875 324.44921875 C-52.18936549 322.61679388 -54.12474621 320.9056874 -56.10546875 319.19921875 C-59.33503242 316.41682543 -62.33869528 313.48902446 -65.32421875 310.44921875 C-67.18936549 308.61679388 -69.12474621 306.9056874 -71.10546875 305.19921875 C-74.38433384 302.37064267 -77.4771028 299.42012731 -80.50390625 296.32421875 C-81.93764665 294.86949678 -83.42478456 293.46785733 -84.91796875 292.07421875 C-88.44047525 288.24978312 -89.12577601 285.97857605 -89.04296875 280.76171875 C-88.32594815 276.1917923 -86.34115772 273.93490772 -83.10546875 270.69921875 C-78.82059279 267.84263478 -75.1321328 267.85396125 -70.10546875 268.69921875 C-64.92934037 271.29652603 -60.9598301 275.69538144 -56.97973633 279.82250977 C-55.17854547 281.62604684 -53.32006712 283.29310697 -51.38671875 284.953125 C-46.49768598 289.19954457 -41.80595552 293.64114046 -37.10546875 298.09375 C-33.02889611 301.93942302 -28.87957655 305.64715004 -24.57421875 309.23632812 C-24.08953125 309.71908203 -23.60484375 310.20183594 -23.10546875 310.69921875 C-23.10546875 311.35921875 -23.10546875 312.01921875 -23.10546875 312.69921875 C-22.44546875 312.69921875 -21.78546875 312.69921875 -21.10546875 312.69921875 C-21.10774707 312.05227411 -21.11002539 311.40532946 -21.11237276 310.73878044 C-21.24662103 272.40147902 -21.34957781 234.06420792 -21.41186073 195.72671908 C-21.41936503 191.12420881 -21.42713096 186.52169901 -21.43505859 181.91918945 C-21.43663246 181.00290689 -21.43820632 180.08662433 -21.43982787 179.14257563 C-21.4659407 164.30331909 -21.51325086 149.46420191 -21.56838553 134.62502807 C-21.62448105 119.40034589 -21.65781856 104.17573673 -21.66999972 88.95095545 C-21.67823532 79.55524314 -21.70425265 70.15992474 -21.75296755 60.76433367 C-21.78466657 54.32271278 -21.79427316 47.88129573 -21.78647701 41.43960249 C-21.78263124 37.72210089 -21.78855415 34.00528791 -21.8207016 30.28790855 C-21.85530756 26.25679061 -21.84340248 22.22714018 -21.82699585 18.19590759 C-21.8444729 17.02177636 -21.86194995 15.84764512 -21.8799566 14.63793415 C-21.81049536 8.33889687 -21.2193662 4.51299216 -16.78322756 -0.11121172 C-11.97055674 -3.52350587 -4.87822138 -3.01381766 0 0 Z " fill="#000000" transform="translate(634.10546875,346.30078125)"/>
<path d="M0 0 C4.47009484 2.27721812 6.9205513 4.45700299 9 9 C9.43221054 12.25434456 9.41719394 15.4825304 9.40625 18.76171875 C9.41708618 19.70755325 9.42792236 20.65338776 9.43908691 21.62788391 C9.47329083 24.64782526 9.4889188 27.6673907 9.5 30.6875 C9.51466801 34.6500958 9.54858278 38.61186587 9.59375 42.57421875 C9.59072876 43.46936691 9.58770752 44.36451508 9.58459473 45.28678894 C9.72199634 57.02812656 13.51819236 66.49078514 21.84765625 74.85546875 C32.31849955 83.56325425 45.97655326 82.44232445 58.78491211 82.41992188 C60.77689589 82.42727137 62.76887541 82.43586015 64.760849 82.44558716 C70.14516719 82.46771644 75.52933196 82.47073824 80.91368937 82.46883965 C85.41902402 82.46871957 89.9243266 82.47729848 94.42965227 82.48561716 C105.06274263 82.50481947 115.69575448 82.50774625 126.32885742 82.50097656 C137.27676478 82.49433449 148.22433533 82.51721435 159.17217439 82.55429029 C168.59333223 82.58503135 178.01438194 82.59634264 187.4355889 82.59245348 C193.05299228 82.59039096 198.67013333 82.59578891 204.28748894 82.62034607 C209.57118728 82.64268408 214.85433922 82.64067663 220.13804054 82.62041855 C222.06969506 82.61702126 224.0013869 82.62204194 225.93299103 82.63640213 C239.45254926 82.72992564 251.01498293 81.74153195 261.3125 71.89453125 C265.19524183 67.53543452 268.44217814 62.95009988 269 57 C269.66 57 270.32 57 271 57 C270.99111755 56.41197601 270.98223511 55.82395203 270.9730835 55.21810913 C270.88444217 49.08609763 270.82419617 42.95426878 270.78027344 36.82177734 C270.76018483 34.53459274 270.73290872 32.24745932 270.69824219 29.96044922 C270.64960442 26.66881666 270.62700321 23.37786443 270.609375 20.0859375 C270.58872986 19.06696381 270.56808472 18.04799011 270.54681396 16.99813843 C270.54492327 10.98703734 271.00614377 7.58379477 275 3 C278.71553439 -0.18474376 282.0620663 -0.46970168 286.7890625 -0.28125 C291.43208123 0.30938136 294.11979213 1.97463434 297.13476562 5.48681641 C299.61429689 10.15703301 299.57683199 13.87842165 299.53125 19.0859375 C299.5350769 20.0605191 299.53890381 21.03510071 299.54284668 22.03921509 C299.54556339 24.10183749 299.53821911 26.16449448 299.52148438 28.22705078 C299.50030322 31.33057065 299.52117361 34.4317136 299.546875 37.53515625 C299.57904059 60.11064692 294.79195394 78.30103168 278.98046875 95.15234375 C268.70811982 105.08164577 254.11726591 111.48920031 239.82518005 111.39440918 C238.94673197 111.40050028 238.06828389 111.40659139 237.16321617 111.41286707 C234.24336053 111.42940838 231.32394525 111.4247339 228.40405273 111.41992188 C226.30062918 111.42726759 224.19720965 111.43585528 222.09379578 111.44558716 C216.39505322 111.46776498 210.69645544 111.47073549 204.99767566 111.46883965 C200.22937434 111.46871971 195.46110343 111.47729371 190.6928106 111.48561716 C179.4334513 111.50483987 168.17416613 111.50774003 156.91479492 111.50097656 C145.32967821 111.49434482 133.74488062 111.51716805 122.1598286 111.55429029 C112.19003425 111.58506845 102.22034208 111.59633828 92.25050122 111.59245348 C86.30654064 111.59039344 80.36282816 111.59574905 74.41891289 111.62034607 C68.82170272 111.6427433 63.22500759 111.64062791 57.62779427 111.62041855 C55.58494281 111.61703077 53.54205581 111.62200007 51.49925232 111.63640213 C31.00899383 111.77077747 14.09684742 107.48771173 -1.375 93.25 C-14.56237408 78.96132487 -19.07443126 62.0399718 -19.23828125 43.1796875 C-19.246353 42.27678986 -19.25442474 41.37389221 -19.26274109 40.44363403 C-19.2764725 38.54951845 -19.28724274 36.65537926 -19.29516602 34.76123047 C-19.30674396 32.83342178 -19.32728619 30.90564656 -19.35668945 28.97802734 C-19.39940844 26.17002941 -19.4155325 23.36297012 -19.42578125 20.5546875 C-19.44328934 19.70035126 -19.46079742 18.84601501 -19.47883606 17.96578979 C-19.45783063 12.14074252 -18.33982367 8.79777248 -15 4 C-10.61465722 0.01332475 -5.80688895 -0.79184849 0 0 Z " fill="#000000" transform="translate(486,677)"/>
<path d="M0 0 C49.17 0 98.34 0 149 0 C149 19.8 149 39.6 149 60 C99.83 60 50.66 60 0 60 C0 40.2 0 20.4 0 0 Z " fill="#00BC5D" transform="translate(551,894)"/>
<path d="M0 0 C3.83819984 2.87864988 5.50601193 5.51384119 7 10 C7.25447559 12.65997219 7.25447559 12.65997219 7.26069641 15.5721283 C7.26778122 16.68099899 7.27486603 17.78986969 7.28216553 18.93234253 C7.27968811 20.13923737 7.27721069 21.3461322 7.2746582 22.58959961 C7.2823246 24.50744514 7.2823246 24.50744514 7.29014587 26.46403503 C7.30351557 29.96405938 7.30411684 33.4639756 7.30158257 36.96402049 C7.30051152 39.88894598 7.30539965 42.81384972 7.310188 45.73877054 C7.32127608 52.64056091 7.32172448 59.54229684 7.31567383 66.4440918 C7.30963328 73.55768416 7.32194859 80.67107877 7.3432439 87.78463739 C7.36087193 93.89859461 7.36685938 100.01248894 7.36360615 106.12647063 C7.36179512 109.77522985 7.36441144 113.423848 7.37832069 117.07258415 C7.39325444 121.14218825 7.38391846 125.21139092 7.37231445 129.28100586 C7.38378006 131.08831177 7.38378006 131.08831177 7.39547729 132.93212891 C7.35050178 140.06024694 6.87056474 144.87615014 1.875 150.3125 C-2.04995477 152.6162778 -5.45845979 153.32661762 -10 153 C-13.72320235 151.78279923 -16.33668304 149.90854926 -18.67066193 146.71168423 C-20.17978652 143.63325788 -20.38165353 141.65173568 -20.39440918 138.23805237 C-20.41143387 136.51164017 -20.41143387 136.51164017 -20.42880249 134.75035095 C-20.42587189 133.49670242 -20.42294128 132.24305389 -20.41992188 130.95141602 C-20.42726558 129.6106699 -20.4358527 128.26993011 -20.44558716 126.92919922 C-20.46777951 123.29485469 -20.47073504 119.66073703 -20.46883965 116.02633405 C-20.46871985 112.98955717 -20.47728771 109.9528282 -20.48561716 106.91606468 C-20.50484272 99.75056977 -20.50773804 92.58519136 -20.50097656 85.41967773 C-20.49433485 78.03330449 -20.51720686 70.64743051 -20.55429029 63.26115853 C-20.58499946 56.91364116 -20.59634607 50.56628431 -20.59245348 44.21869415 C-20.59038735 40.43010821 -20.59584371 36.6419109 -20.62034607 32.85339546 C-20.64263158 29.29005353 -20.64072166 25.72752279 -20.62041855 22.16417694 C-20.61539055 20.23781505 -20.63501378 18.31143792 -20.65542603 16.38517761 C-20.56365886 6.93926123 -20.56365886 6.93926123 -17.5982666 3.26622009 C-12.09382193 -1.53478189 -6.97927301 -1.77925545 0 0 Z " fill="#000000" transform="translate(695,400)"/>
<path d="M0 0 C3.51938694 3.62603503 4.31446968 5.73157242 4.35011292 10.67767334 C4.36297836 11.83283447 4.37584381 12.98799561 4.38909912 14.17816162 C4.39290588 15.4467804 4.39671265 16.71539917 4.40063477 18.02246094 C4.41152995 19.37114077 4.42320167 20.71981452 4.43559265 22.06848145 C4.46610822 25.73393338 4.48311885 29.39932251 4.49580884 33.0648756 C4.50389429 35.35598644 4.51407496 37.64707924 4.52482414 39.93817902 C4.55754788 47.10947037 4.58144544 54.28071793 4.593638 61.45207381 C4.60788693 69.72480692 4.65173788 77.99668603 4.72113949 86.26913619 C4.77295713 92.66671734 4.79781404 99.06405595 4.80246013 105.46184373 C4.80585548 109.2814409 4.82066653 113.1001747 4.86374092 116.91954803 C4.90357965 120.51504352 4.90986153 124.10907634 4.89084053 127.70472717 C4.88897691 129.64651213 4.92173471 131.58823461 4.95565796 133.52972412 C4.89466627 139.21527813 4.81157202 143.1275675 0.79600525 147.39312744 C-2.45643704 150.23873849 -5.50467851 151.18213192 -9.796875 151.328125 C-14.46786677 150.8848922 -17.13133278 148.99653213 -20.25 145.625 C-22.76327348 141.90163189 -23.06451227 139.13481742 -23.07794189 134.74868774 C-23.08365204 133.63270706 -23.08936218 132.51672638 -23.09524536 131.3669281 C-23.09636322 130.14192093 -23.09748108 128.91691376 -23.09863281 127.65478516 C-23.10359772 126.36515366 -23.10856262 125.07552216 -23.11367798 123.74681091 C-23.126794 120.20751003 -23.13324526 116.66822811 -23.13768864 113.12890673 C-23.14062037 110.91755322 -23.14472535 108.70620488 -23.14919281 106.49485397 C-23.16286503 99.57557786 -23.17253329 92.65631359 -23.1763947 85.7370249 C-23.18087632 77.75039894 -23.19843004 69.76394404 -23.2273953 61.7773701 C-23.24901016 55.60318133 -23.25909886 49.42904071 -23.26043582 43.25481451 C-23.2614839 39.56748018 -23.26739236 35.88030672 -23.28525543 32.19301224 C-23.30479405 28.07990378 -23.30044796 23.96715361 -23.29394531 19.85400391 C-23.3031601 18.6330452 -23.31237488 17.41208649 -23.3218689 16.15412903 C-23.31629974 15.0325087 -23.31073059 13.91088837 -23.30499268 12.75527954 C-23.30645924 11.78299723 -23.3079258 10.81071491 -23.3094368 9.8089695 C-22.62121633 4.84263448 -19.68721474 1.30657615 -15.9375 -1.875 C-10.47642286 -3.70688031 -4.81551093 -3.07373038 0 0 Z " fill="#000000" transform="translate(572.9375,401.875)"/>
<path d="M0 0 C3.82632664 2.26796815 6.09733163 3.84602943 7.8359375 8.0234375 C8.11009216 10.2104187 8.11009216 10.2104187 8.14233398 12.60498047 C8.15832138 13.50626678 8.17430878 14.4075531 8.19078064 15.33615112 C8.19882469 16.78624069 8.19882469 16.78624069 8.20703125 18.265625 C8.22057396 19.76731735 8.22057396 19.76731735 8.23439026 21.29934692 C8.24888794 23.41584281 8.25777829 25.53238347 8.26147461 27.64892578 C8.27336963 30.88000304 8.32255989 34.10916949 8.37304688 37.33984375 C8.38251161 39.3984282 8.3897464 41.45702435 8.39453125 43.515625 C8.41406357 44.47830292 8.43359589 45.44098083 8.45372009 46.43283081 C8.42375403 50.90768028 8.32188768 54.03393978 5.43774414 57.59423828 C0.85868256 61.86951864 -3.48357269 62.6962692 -9.65234375 62.61328125 C-14.28743763 61.52479109 -16.7300213 57.9164147 -19.1640625 54.0234375 C-20.05739673 51.34343481 -20.29850085 49.76517389 -20.32519531 47.0144043 C-20.33480286 46.21314621 -20.3444104 45.41188812 -20.35430908 44.58634949 C-20.35855896 43.72383072 -20.36280884 42.86131195 -20.3671875 41.97265625 C-20.37288757 41.08109329 -20.37858765 40.18953033 -20.38446045 39.27095032 C-20.39390599 37.38385198 -20.40044266 35.49673718 -20.40429688 33.60961914 C-20.41399057 30.73228929 -20.44501305 27.85567749 -20.4765625 24.97851562 C-20.48309407 23.1432334 -20.48834394 21.30794607 -20.4921875 19.47265625 C-20.5045343 18.61621017 -20.5168811 17.7597641 -20.52960205 16.87736511 C-20.5109443 11.83717492 -19.96051614 8.38966161 -17.1640625 4.0234375 C-12.19520857 -0.57275239 -6.61570613 -2.98542696 0 0 Z " fill="#000000" transform="translate(757.1640625,443.9765625)"/>
<path d="M0 0 C3.17067507 1.72581048 5.39285219 3.88940171 7.14355469 7.09179688 C8.34714194 11.17877846 8.28569003 15.04203838 8.265625 19.28125 C8.26753845 20.17235474 8.2694519 21.06345947 8.27142334 21.98156738 C8.27278108 23.86092411 8.26911341 25.74029034 8.26074219 27.61962891 C8.25003683 30.49012392 8.26065142 33.35999312 8.2734375 36.23046875 C8.27211583 38.05989721 8.26955329 39.88932528 8.265625 41.71875 C8.26967346 42.57408325 8.27372192 43.4294165 8.27789307 44.31066895 C8.23102677 50.29008944 7.65440857 54.13348777 3.5625 58.75 C-0.12839949 61.99078979 -3.08994396 62.29003759 -7.9375 62.21875 C-12.07724579 61.77968605 -15.00776398 60.06066609 -17.8125 57.0625 C-19.72388439 53.74272711 -20.12474996 50.65238194 -20.14526367 46.86157227 C-20.15164352 46.05716202 -20.15802338 45.25275177 -20.16459656 44.42396545 C-20.16570938 43.56347092 -20.1668222 42.70297638 -20.16796875 41.81640625 C-20.17129715 40.92388657 -20.17462555 40.03136688 -20.17805481 39.11180115 C-20.18311129 37.22647618 -20.18546353 35.34114229 -20.18530273 33.45581055 C-20.18748936 30.57650985 -20.20565896 27.69759233 -20.22460938 24.81835938 C-20.22754356 22.98437631 -20.22952819 21.15039142 -20.23046875 19.31640625 C-20.23765427 18.45793594 -20.24483978 17.59946564 -20.25224304 16.71498108 C-20.23315189 11.70388292 -20.13713482 7.35739662 -16.59765625 3.453125 C-10.90668585 -1.00697394 -6.91859178 -1.72374471 0 0 Z " fill="#000000" transform="translate(507,444)"/>
<path d="M0 0 C49.17 0 98.34 0 149 0 C149 0.33 149 0.66 149 1 C147.865625 1.06058594 146.73125 1.12117187 145.5625 1.18359375 C144.04165865 1.26808494 142.52082575 1.35272851 141 1.4375 C139.88431641 1.49647461 139.88431641 1.49647461 138.74609375 1.55664062 C138.00488281 1.59853516 137.26367188 1.64042969 136.5 1.68359375 C135.49453125 1.73858032 135.49453125 1.73858032 134.46875 1.79467773 C132.46603276 1.96124075 130.47111686 2.21978358 128.48193359 2.5057373 C123.58838104 3.11989969 118.74641003 3.13286732 113.8203125 3.11352539 C112.83403366 3.11367142 111.84775482 3.11381744 110.83158875 3.1139679 C107.5960362 3.11327542 104.36054239 3.10551432 101.125 3.09765625 C98.87198925 3.09578971 96.6189781 3.09436692 94.3659668 3.09336853 C88.45427314 3.08956197 82.5426043 3.07974765 76.63092041 3.06866455 C70.59118994 3.05841034 64.55145543 3.05386233 58.51171875 3.04882812 C46.6744683 3.03812364 34.83723622 3.02106967 23 3 C23 2.34 23 1.68 23 1 C15.41 1 7.82 1 0 1 C0 0.67 0 0.34 0 0 Z " fill="#00BC5D" transform="translate(551,894)"/>
<path d="M0 0 C4.35992871 -0.04945386 8.71970862 -0.08574488 13.07983398 -0.10986328 C14.56293583 -0.11991821 16.04601788 -0.13356404 17.52905273 -0.15087891 C19.66134531 -0.17515006 21.79337569 -0.18648799 23.92578125 -0.1953125 C25.85031128 -0.21102295 25.85031128 -0.21102295 27.8137207 -0.22705078 C31 0 31 0 34 2 C31.69 2.33 29.38 2.66 27 3 C27 2.34 27 1.68 27 1 C25.20755859 1.12568359 25.20755859 1.12568359 23.37890625 1.25390625 C7.69869427 2.28311571 7.69869427 2.28311571 0 1 C0 0.67 0 0.34 0 0 Z " fill="#000000" transform="translate(952,284)"/>
<path d="M0 0 C0 0.66 0 1.32 0 2 C-0.69867188 2.02578125 -1.39734375 2.0515625 -2.1171875 2.078125 C-3.02726562 2.13484375 -3.93734375 2.1915625 -4.875 2.25 C-5.77992188 2.29640625 -6.68484375 2.3428125 -7.6171875 2.390625 C-10.17110544 2.75611148 -10.17110544 2.75611148 -11.3203125 5.046875 C-11.54460937 5.69140625 -11.76890625 6.3359375 -12 7 C-12.66 6.34 -13.32 5.68 -14 5 C-9.15742979 0.94271144 -6.31225945 -0.14027243 0 0 Z " fill="#000000" transform="translate(504,443)"/>
<path d="M0 0 C0.66 0 1.32 0 2 0 C2.50833591 1.24663331 3.00631145 2.49749387 3.5 3.75 C3.7784375 4.44609375 4.056875 5.1421875 4.34375 5.859375 C5 8 5 8 5 12 C1.35224614 8.11690718 0.41474367 5.28798182 0 0 Z " fill="#000000" transform="translate(545,627)"/>
<path d="M0 0 C0.66 0.99 1.32 1.98 2 3 C-0.31 5.31 -2.62 7.62 -5 10 C-5.66 9.34 -6.32 8.68 -7 8 C-4.69 5.36 -2.38 2.72 0 0 Z " fill="#000000" transform="translate(751,744)"/>
<path d="M0 0 C2.31 1.98 4.62 3.96 7 6 C6.34 6.66 5.68 7.32 5 8 C3.02 5.69 1.04 3.38 -1 1 C-0.67 0.67 -0.34 0.34 0 0 Z " fill="#00BC5D" transform="translate(1011,297)"/>
<path d="M0 0 C0.53625 0.226875 1.0725 0.45375 1.625 0.6875 C0.635 1.0175 -0.355 1.3475 -1.375 1.6875 C-1.705 2.3475 -2.035 3.0075 -2.375 3.6875 C-4.3125 4.4375 -4.3125 4.4375 -6.375 4.6875 C-7.035 4.0275 -7.695 3.3675 -8.375 2.6875 C-2.95961538 -0.38942308 -2.95961538 -0.38942308 0 0 Z " fill="#00BC5D" transform="translate(275.375,315.3125)"/>
<path d="M0 0 C1.4370809 -0.05422947 2.87475462 -0.09289723 4.3125 -0.125 C5.11300781 -0.14820313 5.91351562 -0.17140625 6.73828125 -0.1953125 C9 0 9 0 12 2 C9.69 2.33 7.38 2.66 5 3 C5 2.34 5 1.68 5 1 C3.35 1 1.7 1 0 1 C0 0.67 0 0.34 0 0 Z " fill="#000000" transform="translate(974,284)"/>
</svg>
